<mxfile host="app.diagrams.net" modified="2021-12-25T13:05:34.480Z" agent="5.0 (Windows NT 10.0; Win64; x64) AppleWebKit/537.36 (KHTML, like Gecko) Chrome/96.0.4664.110 Safari/537.36" etag="iY1U9idd2wIPTv-PDyVa" version="16.0.3" type="github" pages="2">
  <diagram name="Page-1" id="5f0bae14-7c28-e335-631c-24af17079c00">
    <mxGraphModel dx="782" dy="2174" grid="1" gridSize="10" guides="1" tooltips="1" connect="1" arrows="1" fold="1" page="1" pageScale="1" pageWidth="1100" pageHeight="850" background="none" math="0" shadow="0">
      <root>
        <mxCell id="0" />
        <mxCell id="1" parent="0" />
        <mxCell id="k285_2gc9gQPYvAHi5sY-36" value="" style="edgeStyle=orthogonalEdgeStyle;rounded=0;orthogonalLoop=1;jettySize=auto;html=1;" parent="1" source="QMgQyyXiwYewozrBaR0G-5" target="k285_2gc9gQPYvAHi5sY-7" edge="1">
          <mxGeometry relative="1" as="geometry" />
        </mxCell>
        <mxCell id="k285_2gc9gQPYvAHi5sY-37" style="edgeStyle=orthogonalEdgeStyle;rounded=0;orthogonalLoop=1;jettySize=auto;html=1;entryX=0;entryY=0.5;entryDx=0;entryDy=0;" parent="1" source="QMgQyyXiwYewozrBaR0G-5" target="k285_2gc9gQPYvAHi5sY-1" edge="1">
          <mxGeometry relative="1" as="geometry" />
        </mxCell>
        <mxCell id="k285_2gc9gQPYvAHi5sY-38" style="edgeStyle=orthogonalEdgeStyle;rounded=0;orthogonalLoop=1;jettySize=auto;html=1;entryX=-0.004;entryY=0.625;entryDx=0;entryDy=0;entryPerimeter=0;" parent="1" source="QMgQyyXiwYewozrBaR0G-5" target="k285_2gc9gQPYvAHi5sY-10" edge="1">
          <mxGeometry relative="1" as="geometry" />
        </mxCell>
        <mxCell id="k285_2gc9gQPYvAHi5sY-39" style="edgeStyle=orthogonalEdgeStyle;rounded=0;orthogonalLoop=1;jettySize=auto;html=1;entryX=0;entryY=0.5;entryDx=0;entryDy=0;" parent="1" source="QMgQyyXiwYewozrBaR0G-5" target="k285_2gc9gQPYvAHi5sY-5" edge="1">
          <mxGeometry relative="1" as="geometry" />
        </mxCell>
        <mxCell id="k285_2gc9gQPYvAHi5sY-40" style="edgeStyle=orthogonalEdgeStyle;rounded=0;orthogonalLoop=1;jettySize=auto;html=1;entryX=0;entryY=0.5;entryDx=0;entryDy=0;" parent="1" source="QMgQyyXiwYewozrBaR0G-5" target="k285_2gc9gQPYvAHi5sY-3" edge="1">
          <mxGeometry relative="1" as="geometry" />
        </mxCell>
        <mxCell id="QMgQyyXiwYewozrBaR0G-5" value="Home&lt;table&gt;&lt;tbody&gt;&lt;tr&gt;&lt;td&gt;&lt;br&gt;&lt;/td&gt;&lt;td&gt;&lt;br&gt;&lt;/td&gt;&lt;td&gt;&lt;br&gt;&lt;/td&gt;&lt;/tr&gt;&lt;/tbody&gt;&lt;/table&gt;" style="whiteSpace=wrap;html=1;rounded=1;" parent="1" vertex="1">
          <mxGeometry x="160" y="-1640" width="80" height="280" as="geometry" />
        </mxCell>
        <mxCell id="k285_2gc9gQPYvAHi5sY-1" value="&#xa;&#xa;&lt;div style=&quot;color: rgb(248, 248, 242); background-color: rgb(40, 41, 35); font-family: consolas, &amp;quot;courier new&amp;quot;, monospace; font-weight: normal; font-size: 14px; line-height: 19px;&quot;&gt;&lt;div&gt;&lt;span style=&quot;color: #f8f8f2&quot;&gt;&amp;lt;&lt;/span&gt;&lt;span style=&quot;color: #66d9ef ; font-style: italic&quot;&gt;Nav&lt;/span&gt;&lt;span style=&quot;color: #f8f8f2&quot;&gt; &lt;/span&gt;&lt;span style=&quot;color: #a6e22e&quot;&gt;user&lt;/span&gt;&lt;span style=&quot;color: #f92672&quot;&gt;={&lt;/span&gt;&lt;span style=&quot;color: #fd971f&quot;&gt;this&lt;/span&gt;&lt;span style=&quot;color: #f8f8f2&quot;&gt;.props.user[&lt;/span&gt;&lt;span style=&quot;color: #ae81ff&quot;&gt;0&lt;/span&gt;&lt;span style=&quot;color: #f8f8f2&quot;&gt;]&lt;/span&gt;&lt;span style=&quot;color: #f92672&quot;&gt;}&lt;/span&gt;&lt;span style=&quot;color: #f8f8f2&quot;&gt; &lt;/span&gt;&lt;span style=&quot;color: #a6e22e&quot;&gt;updateContent&lt;/span&gt;&lt;span style=&quot;color: #f92672&quot;&gt;={&lt;/span&gt;&lt;span style=&quot;color: #fd971f&quot;&gt;this&lt;/span&gt;&lt;span style=&quot;color: #f8f8f2&quot;&gt;.updateContent&lt;/span&gt;&lt;span style=&quot;color: #f92672&quot;&gt;}&lt;/span&gt;&lt;span style=&quot;color: #f8f8f2&quot;&gt; &lt;/span&gt;&lt;span style=&quot;color: #a6e22e&quot;&gt;content&lt;/span&gt;&lt;span style=&quot;color: #f92672&quot;&gt;={&lt;/span&gt;&lt;span style=&quot;color: #fd971f&quot;&gt;this&lt;/span&gt;&lt;span style=&quot;color: #f8f8f2&quot;&gt;.props.content&lt;/span&gt;&lt;span style=&quot;color: #f92672&quot;&gt;}&lt;/span&gt;&lt;span style=&quot;color: #f8f8f2&quot;&gt; &lt;/span&gt;&lt;span style=&quot;color: #f8f8f2&quot;&gt;/&amp;gt;&lt;/span&gt;&lt;/div&gt;&lt;/div&gt;&#xa;&#xa;" style="whiteSpace=wrap;html=1;rounded=1;" parent="1" vertex="1">
          <mxGeometry x="280" y="-1640" width="760" height="40" as="geometry" />
        </mxCell>
        <mxCell id="k285_2gc9gQPYvAHi5sY-3" value="&lt;div style=&quot;color: rgb(248 , 248 , 242) ; background-color: rgb(40 , 41 , 35) ; font-family: &amp;#34;consolas&amp;#34; , &amp;#34;courier new&amp;#34; , monospace ; font-size: 14px ; line-height: 19px&quot;&gt;&amp;lt;&lt;span style=&quot;color: #66d9ef ; font-style: italic&quot;&gt;Footer&lt;/span&gt; /&amp;gt;&lt;/div&gt;" style="whiteSpace=wrap;html=1;rounded=1;" parent="1" vertex="1">
          <mxGeometry x="280" y="-1400" width="90" height="40" as="geometry" />
        </mxCell>
        <mxCell id="k285_2gc9gQPYvAHi5sY-5" value="&lt;div style=&quot;color: rgb(248 , 248 , 242) ; background-color: rgb(40 , 41 , 35) ; font-family: &amp;#34;consolas&amp;#34; , &amp;#34;courier new&amp;#34; , monospace ; font-size: 14px ; line-height: 19px&quot;&gt;&amp;lt;&lt;span style=&quot;color: #66d9ef ; font-style: italic&quot;&gt;MostPopularComp&lt;/span&gt; &lt;span style=&quot;color: #a6e22e&quot;&gt;vacations&lt;/span&gt;&lt;span style=&quot;color: #f92672&quot;&gt;={&lt;/span&gt;&lt;span style=&quot;color: #fd971f&quot;&gt;this&lt;/span&gt;.threeVacations&lt;span style=&quot;color: #f92672&quot;&gt;}&lt;/span&gt; /&amp;gt;&lt;/div&gt;" style="whiteSpace=wrap;html=1;rounded=1;" parent="1" vertex="1">
          <mxGeometry x="280" y="-1460" width="410" height="40" as="geometry" />
        </mxCell>
        <mxCell id="k285_2gc9gQPYvAHi5sY-7" value="&lt;div style=&quot;color: rgb(248 , 248 , 242) ; background-color: rgb(40 , 41 , 35) ; font-family: &amp;#34;consolas&amp;#34; , &amp;#34;courier new&amp;#34; , monospace ; font-size: 14px ; line-height: 19px&quot;&gt;&amp;lt;&lt;span style=&quot;color: #66d9ef ; font-style: italic&quot;&gt;NextVacationComp&lt;/span&gt; &lt;span style=&quot;color: #a6e22e&quot;&gt;vacation&lt;/span&gt;&lt;span style=&quot;color: #f92672&quot;&gt;={&lt;/span&gt;&lt;span style=&quot;color: #fd971f&quot;&gt;this&lt;/span&gt;.props.vacations[&lt;span style=&quot;color: #fd971f&quot;&gt;this&lt;/span&gt;.nearestVacIndex]&lt;span style=&quot;color: #f92672&quot;&gt;}&lt;/span&gt; /&amp;gt;&lt;/div&gt;" style="whiteSpace=wrap;html=1;rounded=1;" parent="1" vertex="1">
          <mxGeometry x="280" y="-1520" width="580" height="40" as="geometry" />
        </mxCell>
        <mxCell id="k285_2gc9gQPYvAHi5sY-10" value="&lt;div style=&quot;color: rgb(248 , 248 , 242) ; background-color: rgb(40 , 41 , 35) ; font-family: &amp;#34;consolas&amp;#34; , &amp;#34;courier new&amp;#34; , monospace ; font-size: 14px ; line-height: 19px&quot;&gt;&amp;lt;&lt;span style=&quot;color: #66d9ef ; font-style: italic&quot;&gt;CarouselComp&lt;/span&gt; &lt;span style=&quot;color: #a6e22e&quot;&gt;vacations&lt;/span&gt;&lt;span style=&quot;color: #f92672&quot;&gt;={&lt;/span&gt;&lt;span style=&quot;color: #fd971f&quot;&gt;this&lt;/span&gt;.randoms&lt;span style=&quot;color: #f92672&quot;&gt;}&lt;/span&gt; /&amp;gt;&lt;/div&gt;" style="whiteSpace=wrap;html=1;rounded=1;" parent="1" vertex="1">
          <mxGeometry x="280" y="-1580" width="330" height="40" as="geometry" />
        </mxCell>
        <mxCell id="k285_2gc9gQPYvAHi5sY-12" value="&lt;div style=&quot;color: rgb(248 , 248 , 242) ; background-color: rgb(40 , 41 , 35) ; font-family: &amp;#34;consolas&amp;#34; , &amp;#34;courier new&amp;#34; , monospace ; font-size: 14px ; line-height: 19px&quot;&gt;&amp;lt;&lt;span style=&quot;color: #66d9ef ; font-style: italic&quot;&gt;Nav&lt;/span&gt; &lt;span style=&quot;color: #a6e22e&quot;&gt;user&lt;/span&gt;&lt;span style=&quot;color: #f92672&quot;&gt;={&lt;/span&gt;&lt;span style=&quot;color: #fd971f&quot;&gt;this&lt;/span&gt;.props.user[&lt;span style=&quot;color: #ae81ff&quot;&gt;0&lt;/span&gt;]&lt;span style=&quot;color: #f92672&quot;&gt;}&lt;/span&gt; &lt;span style=&quot;color: #a6e22e&quot;&gt;updateContent&lt;/span&gt;&lt;span style=&quot;color: #f92672&quot;&gt;={&lt;/span&gt;&lt;span style=&quot;color: #fd971f&quot;&gt;this&lt;/span&gt;.updateContent&lt;span style=&quot;color: #f92672&quot;&gt;}&lt;/span&gt; /&amp;gt;&lt;/div&gt;" style="whiteSpace=wrap;html=1;rounded=1;" parent="1" vertex="1">
          <mxGeometry x="280" y="-1040" width="540" height="40" as="geometry" />
        </mxCell>
        <mxCell id="k285_2gc9gQPYvAHi5sY-35" style="edgeStyle=orthogonalEdgeStyle;rounded=0;orthogonalLoop=1;jettySize=auto;html=1;entryX=0;entryY=0.5;entryDx=0;entryDy=0;" parent="1" target="k285_2gc9gQPYvAHi5sY-32" edge="1">
          <mxGeometry relative="1" as="geometry">
            <mxPoint x="240" y="-1160" as="sourcePoint" />
            <Array as="points">
              <mxPoint x="240" y="-1200" />
              <mxPoint x="260" y="-1200" />
              <mxPoint x="260" y="-1140" />
            </Array>
          </mxGeometry>
        </mxCell>
        <mxCell id="k285_2gc9gQPYvAHi5sY-41" value="" style="edgeStyle=orthogonalEdgeStyle;rounded=0;orthogonalLoop=1;jettySize=auto;html=1;" parent="1" source="k285_2gc9gQPYvAHi5sY-22" edge="1">
          <mxGeometry relative="1" as="geometry">
            <mxPoint x="280" y="-1200" as="targetPoint" />
          </mxGeometry>
        </mxCell>
        <mxCell id="k285_2gc9gQPYvAHi5sY-42" style="edgeStyle=orthogonalEdgeStyle;rounded=0;orthogonalLoop=1;jettySize=auto;html=1;entryX=0;entryY=0.5;entryDx=0;entryDy=0;" parent="1" source="k285_2gc9gQPYvAHi5sY-22" target="k285_2gc9gQPYvAHi5sY-30" edge="1">
          <mxGeometry relative="1" as="geometry" />
        </mxCell>
        <mxCell id="k285_2gc9gQPYvAHi5sY-22" value="Vacations&lt;br&gt;&lt;table&gt;&lt;tbody&gt;&lt;tr&gt;&lt;td&gt;&lt;/td&gt;&lt;td&gt;&lt;/td&gt;&lt;td&gt;&lt;br&gt;&lt;/td&gt;&lt;/tr&gt;&lt;/tbody&gt;&lt;/table&gt;" style="whiteSpace=wrap;html=1;rounded=1;" parent="1" vertex="1">
          <mxGeometry x="160" y="-1280" width="80" height="160" as="geometry" />
        </mxCell>
        <mxCell id="k285_2gc9gQPYvAHi5sY-25" value="" style="edgeStyle=orthogonalEdgeStyle;rounded=0;orthogonalLoop=1;jettySize=auto;html=1;" parent="1" source="k285_2gc9gQPYvAHi5sY-24" target="k285_2gc9gQPYvAHi5sY-12" edge="1">
          <mxGeometry relative="1" as="geometry" />
        </mxCell>
        <mxCell id="k285_2gc9gQPYvAHi5sY-27" value="" style="edgeStyle=orthogonalEdgeStyle;rounded=0;orthogonalLoop=1;jettySize=auto;html=1;" parent="1" source="k285_2gc9gQPYvAHi5sY-24" target="k285_2gc9gQPYvAHi5sY-26" edge="1">
          <mxGeometry relative="1" as="geometry" />
        </mxCell>
        <mxCell id="k285_2gc9gQPYvAHi5sY-29" style="edgeStyle=orthogonalEdgeStyle;rounded=0;orthogonalLoop=1;jettySize=auto;html=1;entryX=0;entryY=0.5;entryDx=0;entryDy=0;" parent="1" source="k285_2gc9gQPYvAHi5sY-24" target="k285_2gc9gQPYvAHi5sY-28" edge="1">
          <mxGeometry relative="1" as="geometry" />
        </mxCell>
        <mxCell id="k285_2gc9gQPYvAHi5sY-24" value="Reports&lt;br&gt;&lt;table&gt;&lt;tbody&gt;&lt;tr&gt;&lt;td&gt;&lt;/td&gt;&lt;td&gt;&lt;/td&gt;&lt;td&gt;&lt;br&gt;&lt;/td&gt;&lt;/tr&gt;&lt;/tbody&gt;&lt;/table&gt;" style="whiteSpace=wrap;html=1;rounded=1;" parent="1" vertex="1">
          <mxGeometry x="160" y="-1040" width="80" height="160" as="geometry" />
        </mxCell>
        <mxCell id="k285_2gc9gQPYvAHi5sY-26" value="&#xa;&#xa;&lt;div style=&quot;color: rgb(248, 248, 242); background-color: rgb(40, 41, 35); font-family: consolas, &amp;quot;courier new&amp;quot;, monospace; font-weight: normal; font-size: 14px; line-height: 19px;&quot;&gt;&lt;div&gt;&lt;span style=&quot;color: #f8f8f2&quot;&gt;&amp;lt;&lt;/span&gt;&lt;span style=&quot;color: #66d9ef ; font-style: italic&quot;&gt;Bar&lt;/span&gt;&lt;span style=&quot;color: #f8f8f2&quot;&gt; &lt;/span&gt;&lt;span style=&quot;color: #a6e22e&quot;&gt;data&lt;/span&gt;&lt;span style=&quot;color: #f92672&quot;&gt;={&lt;/span&gt;&lt;span style=&quot;color: #fd971f&quot;&gt;this&lt;/span&gt;&lt;span style=&quot;color: #f8f8f2&quot;&gt;.data&lt;/span&gt;&lt;span style=&quot;color: #f92672&quot;&gt;}&lt;/span&gt;&lt;span style=&quot;color: #f8f8f2&quot;&gt; &lt;/span&gt;&lt;span style=&quot;color: #a6e22e&quot;&gt;options&lt;/span&gt;&lt;span style=&quot;color: #f92672&quot;&gt;={&lt;/span&gt;&lt;span style=&quot;color: #fd971f&quot;&gt;this&lt;/span&gt;&lt;span style=&quot;color: #f8f8f2&quot;&gt;.options&lt;/span&gt;&lt;span style=&quot;color: #f92672&quot;&gt;}&lt;/span&gt;&lt;span style=&quot;color: #f8f8f2&quot;&gt; &lt;/span&gt;&lt;span style=&quot;color: #a6e22e&quot;&gt;className&lt;/span&gt;&lt;span style=&quot;color: #f92672&quot;&gt;=&lt;/span&gt;&lt;span style=&quot;color: #e6db74&quot;&gt;&quot;graph my-4&quot;&lt;/span&gt;&lt;span style=&quot;color: #f8f8f2&quot;&gt; &lt;/span&gt;&lt;span style=&quot;color: #f8f8f2&quot;&gt;/&amp;gt;&lt;/span&gt;&lt;/div&gt;&lt;/div&gt;&#xa;&#xa;" style="whiteSpace=wrap;html=1;rounded=1;" parent="1" vertex="1">
          <mxGeometry x="280" y="-980" width="550" height="40" as="geometry" />
        </mxCell>
        <mxCell id="k285_2gc9gQPYvAHi5sY-28" value="&lt;div style=&quot;color: rgb(248 , 248 , 242) ; background-color: rgb(40 , 41 , 35) ; font-family: &amp;#34;consolas&amp;#34; , &amp;#34;courier new&amp;#34; , monospace ; font-size: 14px ; line-height: 19px&quot;&gt;&amp;lt;&lt;span style=&quot;color: #66d9ef ; font-style: italic&quot;&gt;Footer&lt;/span&gt; /&amp;gt;&lt;/div&gt;" style="whiteSpace=wrap;html=1;rounded=1;" parent="1" vertex="1">
          <mxGeometry x="280" y="-920" width="90" height="40" as="geometry" />
        </mxCell>
        <mxCell id="k285_2gc9gQPYvAHi5sY-30" value="&#xa;&#xa;&lt;div style=&quot;color: rgb(248, 248, 242); background-color: rgb(40, 41, 35); font-family: consolas, &amp;quot;courier new&amp;quot;, monospace; font-weight: normal; font-size: 14px; line-height: 19px;&quot;&gt;&lt;div&gt;&lt;span style=&quot;color: #66d9ef ; font-style: italic&quot;&gt;Nav&lt;/span&gt;&lt;span style=&quot;color: #f8f8f2&quot;&gt; &lt;/span&gt;&lt;span style=&quot;color: #a6e22e&quot;&gt;user&lt;/span&gt;&lt;span style=&quot;color: #f92672&quot;&gt;={&lt;/span&gt;&lt;span style=&quot;color: #fd971f&quot;&gt;this&lt;/span&gt;&lt;span style=&quot;color: #f8f8f2&quot;&gt;.props.user[&lt;/span&gt;&lt;span style=&quot;color: #ae81ff&quot;&gt;0&lt;/span&gt;&lt;span style=&quot;color: #f8f8f2&quot;&gt;]&lt;/span&gt;&lt;span style=&quot;color: #f92672&quot;&gt;}&lt;/span&gt;&lt;span style=&quot;color: #f8f8f2&quot;&gt; &lt;/span&gt;&lt;span style=&quot;color: #a6e22e&quot;&gt;openModalAdd&lt;/span&gt;&lt;span style=&quot;color: #f92672&quot;&gt;={&lt;/span&gt;&lt;span style=&quot;color: #fd971f&quot;&gt;this&lt;/span&gt;&lt;span style=&quot;color: #f8f8f2&quot;&gt;.openModalAdd&lt;/span&gt;&lt;span style=&quot;color: #f92672&quot;&gt;}&lt;/span&gt;&lt;span style=&quot;color: #f8f8f2&quot;&gt; &lt;/span&gt;&lt;span style=&quot;color: #a6e22e&quot;&gt;logOutIconClicked&lt;/span&gt;&lt;span style=&quot;color: #f92672&quot;&gt;={&lt;/span&gt;&lt;span style=&quot;color: #fd971f&quot;&gt;this&lt;/span&gt;&lt;span style=&quot;color: #f8f8f2&quot;&gt;.logOutIconClicked&lt;/span&gt;&lt;span style=&quot;color: #f92672&quot;&gt;}&lt;/span&gt;&lt;span style=&quot;color: #f8f8f2&quot;&gt; &lt;/span&gt;&lt;span style=&quot;color: #a6e22e&quot;&gt;updateContent&lt;/span&gt;&lt;span style=&quot;color: #f92672&quot;&gt;={&lt;/span&gt;&lt;span style=&quot;color: #fd971f&quot;&gt;this&lt;/span&gt;&lt;span style=&quot;color: #f8f8f2&quot;&gt;.updateContent&lt;/span&gt;&lt;span style=&quot;color: #f92672&quot;&gt;}&lt;/span&gt;&lt;span style=&quot;color: #f8f8f2&quot;&gt; &lt;/span&gt;&lt;span style=&quot;color: #f8f8f2&quot;&gt;/&amp;gt;&lt;/span&gt;&lt;/div&gt;&lt;/div&gt;&#xa;&#xa;" style="whiteSpace=wrap;html=1;rounded=1;" parent="1" vertex="1">
          <mxGeometry x="280" y="-1280" width="1110" height="40" as="geometry" />
        </mxCell>
        <mxCell id="k285_2gc9gQPYvAHi5sY-32" value="&lt;div style=&quot;color: rgb(248 , 248 , 242) ; background-color: rgb(40 , 41 , 35) ; font-family: &amp;#34;consolas&amp;#34; , &amp;#34;courier new&amp;#34; , monospace ; font-size: 14px ; line-height: 19px&quot;&gt;&amp;lt;&lt;span style=&quot;color: #66d9ef ; font-style: italic&quot;&gt;Footer&lt;/span&gt; /&amp;gt;&lt;/div&gt;" style="whiteSpace=wrap;html=1;rounded=1;" parent="1" vertex="1">
          <mxGeometry x="280" y="-1160" width="90" height="40" as="geometry" />
        </mxCell>
        <mxCell id="k285_2gc9gQPYvAHi5sY-43" value="&#xa;&#xa;&lt;div style=&quot;color: rgb(248, 248, 242); background-color: rgb(40, 41, 35); font-family: consolas, &amp;quot;courier new&amp;quot;, monospace; font-weight: normal; font-size: 14px; line-height: 19px;&quot;&gt;&lt;div&gt;&lt;span style=&quot;color: #f8f8f2&quot;&gt;&amp;lt;&lt;/span&gt;&lt;span style=&quot;color: #66d9ef ; font-style: italic&quot;&gt;SingleVacationCard&lt;/span&gt;&lt;span style=&quot;color: #f8f8f2&quot;&gt; &lt;/span&gt;&lt;span style=&quot;color: #a6e22e&quot;&gt;user&lt;/span&gt;&lt;span style=&quot;color: #f92672&quot;&gt;={&lt;/span&gt;&lt;span style=&quot;color: #fd971f&quot;&gt;this&lt;/span&gt;&lt;span style=&quot;color: #f8f8f2&quot;&gt;.props.user[&lt;/span&gt;&lt;span style=&quot;color: #ae81ff&quot;&gt;0&lt;/span&gt;&lt;span style=&quot;color: #f8f8f2&quot;&gt;]&lt;/span&gt;&lt;span style=&quot;color: #f92672&quot;&gt;}&lt;/span&gt;&lt;span style=&quot;color: #f8f8f2&quot;&gt; &lt;/span&gt;&lt;span style=&quot;color: #a6e22e&quot;&gt;vacations&lt;/span&gt;&lt;span style=&quot;color: #f92672&quot;&gt;={&lt;/span&gt;&lt;span style=&quot;color: #fd971f&quot;&gt;this&lt;/span&gt;&lt;span style=&quot;color: #f8f8f2&quot;&gt;.props.vacations&lt;/span&gt;&lt;span style=&quot;color: #f92672&quot;&gt;}&lt;/span&gt;&lt;span style=&quot;color: #f8f8f2&quot;&gt; &lt;/span&gt;&lt;span style=&quot;color: #a6e22e&quot;&gt;insertStarToDB&lt;/span&gt;&lt;span style=&quot;color: #f92672&quot;&gt;={&lt;/span&gt;&lt;span style=&quot;color: #fd971f&quot;&gt;this&lt;/span&gt;&lt;span style=&quot;color: #f8f8f2&quot;&gt;.insertStarToDB&lt;/span&gt;&lt;span style=&quot;color: #f92672&quot;&gt;}&lt;/span&gt;&lt;span style=&quot;color: #f8f8f2&quot;&gt; &lt;/span&gt;&lt;span style=&quot;color: #a6e22e&quot;&gt;deleteStarFromDB&lt;/span&gt;&lt;span style=&quot;color: #f92672&quot;&gt;={&lt;/span&gt;&lt;span style=&quot;color: #fd971f&quot;&gt;this&lt;/span&gt;&lt;span style=&quot;color: #f8f8f2&quot;&gt;.deleteStarFromDB&lt;/span&gt;&lt;span style=&quot;color: #f92672&quot;&gt;}&lt;/span&gt;&lt;span style=&quot;color: #f8f8f2&quot;&gt; &lt;/span&gt;&lt;span style=&quot;color: #a6e22e&quot;&gt;deleteVacationFromDB&lt;/span&gt;&lt;span style=&quot;color: #f92672&quot;&gt;={&lt;/span&gt;&lt;span style=&quot;color: #fd971f&quot;&gt;this&lt;/span&gt;&lt;span style=&quot;color: #f8f8f2&quot;&gt;.deleteVacationFromDB&lt;/span&gt;&lt;span style=&quot;color: #f92672&quot;&gt;}&lt;/span&gt;&lt;span style=&quot;color: #f8f8f2&quot;&gt; &lt;/span&gt;&lt;span style=&quot;color: #a6e22e&quot;&gt;openModalEdit&lt;/span&gt;&lt;span style=&quot;color: #f92672&quot;&gt;={&lt;/span&gt;&lt;span style=&quot;color: #fd971f&quot;&gt;this&lt;/span&gt;&lt;span style=&quot;color: #f8f8f2&quot;&gt;.openModalEdit&lt;/span&gt;&lt;span style=&quot;color: #f92672&quot;&gt;}&lt;/span&gt;&lt;span style=&quot;color: #f8f8f2&quot;&gt; &lt;/span&gt;&lt;span style=&quot;color: #f8f8f2&quot;&gt;/&amp;gt;&lt;/span&gt;&lt;/div&gt;&lt;/div&gt;&#xa;&#xa;" style="whiteSpace=wrap;html=1;rounded=1;" parent="1" vertex="1">
          <mxGeometry x="280" y="-1220" width="1880" height="40" as="geometry" />
        </mxCell>
        <mxCell id="k285_2gc9gQPYvAHi5sY-46" style="edgeStyle=orthogonalEdgeStyle;rounded=0;orthogonalLoop=1;jettySize=auto;html=1;entryX=-0.044;entryY=0.43;entryDx=0;entryDy=0;entryPerimeter=0;" parent="1" source="k285_2gc9gQPYvAHi5sY-45" target="QMgQyyXiwYewozrBaR0G-5" edge="1">
          <mxGeometry relative="1" as="geometry" />
        </mxCell>
        <mxCell id="k285_2gc9gQPYvAHi5sY-47" style="edgeStyle=orthogonalEdgeStyle;rounded=0;orthogonalLoop=1;jettySize=auto;html=1;entryX=0;entryY=0.5;entryDx=0;entryDy=0;" parent="1" source="k285_2gc9gQPYvAHi5sY-45" target="k285_2gc9gQPYvAHi5sY-22" edge="1">
          <mxGeometry relative="1" as="geometry" />
        </mxCell>
        <mxCell id="k285_2gc9gQPYvAHi5sY-48" style="edgeStyle=orthogonalEdgeStyle;rounded=0;orthogonalLoop=1;jettySize=auto;html=1;entryX=0;entryY=0.5;entryDx=0;entryDy=0;" parent="1" source="k285_2gc9gQPYvAHi5sY-45" target="k285_2gc9gQPYvAHi5sY-24" edge="1">
          <mxGeometry relative="1" as="geometry" />
        </mxCell>
        <mxCell id="k285_2gc9gQPYvAHi5sY-45" value="App" style="rounded=1;whiteSpace=wrap;html=1;" parent="1" vertex="1">
          <mxGeometry x="40" y="-1640" width="80" height="760" as="geometry" />
        </mxCell>
      </root>
    </mxGraphModel>
  </diagram>
  <diagram id="Nh2DE2Q71vz4p0g6k_5Q" name="Page-2">
    <mxGraphModel dx="782" dy="474" grid="1" gridSize="10" guides="1" tooltips="1" connect="1" arrows="1" fold="1" page="1" pageScale="1" pageWidth="827" pageHeight="1169" math="0" shadow="0">
      <root>
        <mxCell id="DKAS6l4S00Xv15B4dpO1-0" />
        <mxCell id="DKAS6l4S00Xv15B4dpO1-1" parent="DKAS6l4S00Xv15B4dpO1-0" />
        <mxCell id="-5QdoDLChzsurSGzzUl--2" value="" style="edgeStyle=orthogonalEdgeStyle;rounded=0;orthogonalLoop=1;jettySize=auto;html=1;" edge="1" parent="DKAS6l4S00Xv15B4dpO1-1" source="-5QdoDLChzsurSGzzUl--0" target="-5QdoDLChzsurSGzzUl--1">
          <mxGeometry relative="1" as="geometry">
            <Array as="points">
              <mxPoint x="502" y="100" />
              <mxPoint x="302" y="100" />
            </Array>
          </mxGeometry>
        </mxCell>
        <mxCell id="-5QdoDLChzsurSGzzUl--7" style="edgeStyle=orthogonalEdgeStyle;rounded=0;orthogonalLoop=1;jettySize=auto;html=1;" edge="1" parent="DKAS6l4S00Xv15B4dpO1-1" source="-5QdoDLChzsurSGzzUl--0" target="-5QdoDLChzsurSGzzUl--3">
          <mxGeometry relative="1" as="geometry" />
        </mxCell>
        <mxCell id="-5QdoDLChzsurSGzzUl--8" style="edgeStyle=orthogonalEdgeStyle;rounded=0;orthogonalLoop=1;jettySize=auto;html=1;" edge="1" parent="DKAS6l4S00Xv15B4dpO1-1" source="-5QdoDLChzsurSGzzUl--0" target="-5QdoDLChzsurSGzzUl--5">
          <mxGeometry relative="1" as="geometry">
            <Array as="points">
              <mxPoint x="502" y="100" />
              <mxPoint x="702" y="100" />
            </Array>
          </mxGeometry>
        </mxCell>
        <mxCell id="-5QdoDLChzsurSGzzUl--0" value="App" style="rounded=1;whiteSpace=wrap;html=1;" vertex="1" parent="DKAS6l4S00Xv15B4dpO1-1">
          <mxGeometry x="442" y="20" width="120" height="60" as="geometry" />
        </mxCell>
        <mxCell id="bXeRXSoJA1ILJP_v_g_t-3" style="edgeStyle=orthogonalEdgeStyle;rounded=0;orthogonalLoop=1;jettySize=auto;html=1;fontFamily=Helvetica;fontSize=15;fontColor=#000000;" edge="1" parent="DKAS6l4S00Xv15B4dpO1-1" source="-5QdoDLChzsurSGzzUl--1" target="QZo0SI7vUK4cgd0_uTAl-0">
          <mxGeometry relative="1" as="geometry">
            <Array as="points">
              <mxPoint x="302" y="250" />
              <mxPoint x="302" y="250" />
            </Array>
          </mxGeometry>
        </mxCell>
        <mxCell id="-5QdoDLChzsurSGzzUl--1" value="Report" style="whiteSpace=wrap;html=1;rounded=1;" vertex="1" parent="DKAS6l4S00Xv15B4dpO1-1">
          <mxGeometry x="242" y="140" width="120" height="60" as="geometry" />
        </mxCell>
        <mxCell id="QZo0SI7vUK4cgd0_uTAl-1" value="" style="edgeStyle=orthogonalEdgeStyle;rounded=0;orthogonalLoop=1;jettySize=auto;html=1;" edge="1" parent="DKAS6l4S00Xv15B4dpO1-1" source="-5QdoDLChzsurSGzzUl--3" target="QZo0SI7vUK4cgd0_uTAl-0">
          <mxGeometry relative="1" as="geometry" />
        </mxCell>
        <mxCell id="-5QdoDLChzsurSGzzUl--3" value="Home" style="whiteSpace=wrap;html=1;rounded=1;" vertex="1" parent="DKAS6l4S00Xv15B4dpO1-1">
          <mxGeometry x="442" y="140" width="120" height="60" as="geometry" />
        </mxCell>
        <mxCell id="_OHYxKAUWBWKIHNH0SEk-21" style="edgeStyle=orthogonalEdgeStyle;rounded=0;orthogonalLoop=1;jettySize=auto;html=1;entryX=0.883;entryY=-0.017;entryDx=0;entryDy=0;entryPerimeter=0;fontFamily=Helvetica;fontSize=12;fontColor=#000000;" edge="1" parent="DKAS6l4S00Xv15B4dpO1-1" source="-5QdoDLChzsurSGzzUl--5" target="QZo0SI7vUK4cgd0_uTAl-0">
          <mxGeometry relative="1" as="geometry" />
        </mxCell>
        <mxCell id="-5QdoDLChzsurSGzzUl--5" value="Vacations" style="whiteSpace=wrap;html=1;rounded=1;" vertex="1" parent="DKAS6l4S00Xv15B4dpO1-1">
          <mxGeometry x="642" y="140" width="120" height="60" as="geometry" />
        </mxCell>
        <mxCell id="_OHYxKAUWBWKIHNH0SEk-13" value="" style="edgeStyle=orthogonalEdgeStyle;rounded=0;orthogonalLoop=1;jettySize=auto;html=1;fontFamily=Helvetica;fontSize=14;fontColor=#000000;startArrow=none;" edge="1" parent="DKAS6l4S00Xv15B4dpO1-1" source="GPODberzA4idkuwlgO1S-0" target="_OHYxKAUWBWKIHNH0SEk-12">
          <mxGeometry relative="1" as="geometry" />
        </mxCell>
        <mxCell id="GPODberzA4idkuwlgO1S-2" value="&lt;span style=&quot;color: rgb(0 , 0 , 0) ; font-family: &amp;#34;helvetica&amp;#34; ; font-size: 13px ; font-style: normal ; letter-spacing: normal ; text-align: center ; text-indent: 0px ; text-transform: none ; word-spacing: 0px ; background-color: rgb(255 , 255 , 255) ; display: inline ; float: none&quot;&gt;&lt;b&gt;NextVacationComp&lt;/b&gt;&lt;br&gt;&lt;div style=&quot;text-align: left&quot;&gt;&lt;b style=&quot;font-weight: bold ; font-family: &amp;#34;helvetica&amp;#34; ; font-size: 12px ; line-height: 1.2&quot;&gt;props: &lt;/b&gt;&lt;span style=&quot;font-family: &amp;#34;helvetica&amp;#34; ; font-size: 12px ; line-height: 1.2&quot;&gt;vacation&lt;/span&gt;&lt;b style=&quot;font-weight: bold ; font-family: &amp;#34;helvetica&amp;#34; ; font-size: 12px ; line-height: 1.2&quot;&gt;&amp;nbsp;&lt;/b&gt;&lt;/div&gt;&lt;div style=&quot;font-weight: bold ; text-align: left&quot;&gt;&lt;b style=&quot;font-family: &amp;#34;helvetica&amp;#34; ; font-size: 12px ; line-height: 1.2&quot;&gt;&lt;br&gt;&lt;/b&gt;&lt;/div&gt;&lt;/span&gt;" style="whiteSpace=wrap;html=1;rounded=1;" vertex="1" parent="DKAS6l4S00Xv15B4dpO1-1">
          <mxGeometry x="438" y="440" width="128" height="80" as="geometry" />
        </mxCell>
        <mxCell id="_OHYxKAUWBWKIHNH0SEk-2" value="" style="edgeStyle=orthogonalEdgeStyle;rounded=0;orthogonalLoop=1;jettySize=auto;html=1;fontFamily=Helvetica;fontSize=13;fontColor=#000000;endArrow=none;" edge="1" parent="DKAS6l4S00Xv15B4dpO1-1" source="-5QdoDLChzsurSGzzUl--3" target="QZo0SI7vUK4cgd0_uTAl-0">
          <mxGeometry relative="1" as="geometry">
            <mxPoint x="516" y="180" as="sourcePoint" />
            <mxPoint x="516" y="510" as="targetPoint" />
          </mxGeometry>
        </mxCell>
        <mxCell id="bXeRXSoJA1ILJP_v_g_t-6" style="edgeStyle=orthogonalEdgeStyle;rounded=0;orthogonalLoop=1;jettySize=auto;html=1;entryX=0.888;entryY=0;entryDx=0;entryDy=0;entryPerimeter=0;fontFamily=Helvetica;fontSize=15;fontColor=#000000;" edge="1" parent="DKAS6l4S00Xv15B4dpO1-1" source="_OHYxKAUWBWKIHNH0SEk-4" target="_OHYxKAUWBWKIHNH0SEk-8">
          <mxGeometry relative="1" as="geometry">
            <Array as="points">
              <mxPoint x="700" y="610" />
              <mxPoint x="700" y="610" />
            </Array>
          </mxGeometry>
        </mxCell>
        <mxCell id="_OHYxKAUWBWKIHNH0SEk-4" value="&lt;font&gt;&lt;b&gt;&lt;font style=&quot;font-size: 14px&quot;&gt;SingleVacCard&lt;/font&gt;&lt;/b&gt;&lt;br&gt;&lt;div style=&quot;text-align: left&quot;&gt;&lt;b&gt;props: &lt;/b&gt;&lt;span&gt;user, vacations&lt;/span&gt;&lt;/div&gt;&lt;div style=&quot;text-align: left&quot;&gt;&lt;b&gt;comps: &lt;/b&gt;editIcons, starsIcons&lt;/div&gt;&lt;/font&gt;" style="whiteSpace=wrap;html=1;rounded=1;" vertex="1" parent="DKAS6l4S00Xv15B4dpO1-1">
          <mxGeometry x="626" y="438.75" width="132" height="82.5" as="geometry" />
        </mxCell>
        <mxCell id="bXeRXSoJA1ILJP_v_g_t-4" style="edgeStyle=orthogonalEdgeStyle;rounded=0;orthogonalLoop=1;jettySize=auto;html=1;entryX=0.13;entryY=0.033;entryDx=0;entryDy=0;entryPerimeter=0;fontFamily=Helvetica;fontSize=15;fontColor=#000000;" edge="1" parent="DKAS6l4S00Xv15B4dpO1-1" source="_OHYxKAUWBWKIHNH0SEk-6" target="_OHYxKAUWBWKIHNH0SEk-8">
          <mxGeometry relative="1" as="geometry" />
        </mxCell>
        <mxCell id="_OHYxKAUWBWKIHNH0SEk-6" value="Bar&lt;br style=&quot;font-size: 13px&quot;&gt;&lt;span style=&quot;font-size: 12px&quot;&gt;props: &lt;span style=&quot;font-weight: 400&quot;&gt;data, options&lt;/span&gt;&lt;/span&gt;" style="whiteSpace=wrap;html=1;rounded=1;fontStyle=1;fontSize=14;" vertex="1" parent="DKAS6l4S00Xv15B4dpO1-1">
          <mxGeometry x="242" y="440" width="128" height="80" as="geometry" />
        </mxCell>
        <mxCell id="_OHYxKAUWBWKIHNH0SEk-8" value="&lt;b&gt;Footer&lt;/b&gt;" style="rounded=1;whiteSpace=wrap;html=1;labelBackgroundColor=none;fontFamily=Helvetica;fontSize=14;fontColor=#000000;" vertex="1" parent="DKAS6l4S00Xv15B4dpO1-1">
          <mxGeometry x="238" y="660" width="520" height="60" as="geometry" />
        </mxCell>
        <mxCell id="bXeRXSoJA1ILJP_v_g_t-5" style="edgeStyle=orthogonalEdgeStyle;rounded=0;orthogonalLoop=1;jettySize=auto;html=1;entryX=0.5;entryY=0;entryDx=0;entryDy=0;fontFamily=Helvetica;fontSize=15;fontColor=#000000;" edge="1" parent="DKAS6l4S00Xv15B4dpO1-1" source="_OHYxKAUWBWKIHNH0SEk-12" target="_OHYxKAUWBWKIHNH0SEk-8">
          <mxGeometry relative="1" as="geometry" />
        </mxCell>
        <mxCell id="_OHYxKAUWBWKIHNH0SEk-12" value="&lt;b style=&quot;font-size: 12px&quot;&gt;MostPopularVacs&lt;br&gt;props: &lt;/b&gt;&lt;span style=&quot;font-size: 12px&quot;&gt;vacations&lt;/span&gt;&lt;span style=&quot;font-size: 12px&quot;&gt;&lt;br&gt;&lt;/span&gt;&lt;b style=&quot;font-size: 12px&quot;&gt;&lt;br&gt;&lt;/b&gt;" style="whiteSpace=wrap;html=1;rounded=1;fontSize=14;align=left;" vertex="1" parent="DKAS6l4S00Xv15B4dpO1-1">
          <mxGeometry x="438" y="560" width="120" height="70" as="geometry" />
        </mxCell>
        <mxCell id="_OHYxKAUWBWKIHNH0SEk-24" style="edgeStyle=orthogonalEdgeStyle;rounded=0;orthogonalLoop=1;jettySize=auto;html=1;entryX=0.5;entryY=0;entryDx=0;entryDy=0;fontFamily=Helvetica;fontSize=12;fontColor=#000000;" edge="1" parent="DKAS6l4S00Xv15B4dpO1-1" source="QZo0SI7vUK4cgd0_uTAl-0" target="_OHYxKAUWBWKIHNH0SEk-6">
          <mxGeometry relative="1" as="geometry">
            <Array as="points">
              <mxPoint x="302" y="280" />
              <mxPoint x="302" y="280" />
            </Array>
          </mxGeometry>
        </mxCell>
        <mxCell id="_OHYxKAUWBWKIHNH0SEk-29" style="edgeStyle=orthogonalEdgeStyle;rounded=0;orthogonalLoop=1;jettySize=auto;html=1;fontFamily=Helvetica;fontSize=12;fontColor=#000000;" edge="1" parent="DKAS6l4S00Xv15B4dpO1-1" source="QZo0SI7vUK4cgd0_uTAl-0" target="_OHYxKAUWBWKIHNH0SEk-4">
          <mxGeometry relative="1" as="geometry">
            <Array as="points">
              <mxPoint x="702" y="340" />
              <mxPoint x="702" y="340" />
            </Array>
          </mxGeometry>
        </mxCell>
        <mxCell id="_OHYxKAUWBWKIHNH0SEk-35" style="edgeStyle=orthogonalEdgeStyle;rounded=0;orthogonalLoop=1;jettySize=auto;html=1;entryX=0.5;entryY=0;entryDx=0;entryDy=0;fontFamily=Helvetica;fontSize=12;fontColor=#000000;startArrow=none;" edge="1" parent="DKAS6l4S00Xv15B4dpO1-1" source="GPODberzA4idkuwlgO1S-0" target="GPODberzA4idkuwlgO1S-2">
          <mxGeometry relative="1" as="geometry" />
        </mxCell>
        <mxCell id="bXeRXSoJA1ILJP_v_g_t-1" value="" style="edgeStyle=orthogonalEdgeStyle;rounded=0;orthogonalLoop=1;jettySize=auto;html=1;fontFamily=Helvetica;fontSize=15;fontColor=#000000;" edge="1" parent="DKAS6l4S00Xv15B4dpO1-1" source="QZo0SI7vUK4cgd0_uTAl-0" target="GPODberzA4idkuwlgO1S-0">
          <mxGeometry relative="1" as="geometry" />
        </mxCell>
        <mxCell id="QZo0SI7vUK4cgd0_uTAl-0" value="&lt;div style=&quot;font-size: 13px&quot;&gt;&lt;span&gt;&lt;font style=&quot;font-size: 13px&quot;&gt;&lt;b&gt;Nav&lt;/b&gt;&lt;/font&gt;&lt;/span&gt;&lt;/div&gt;&lt;div style=&quot;font-size: 13px&quot;&gt;&lt;font style=&quot;font-size: 13px&quot;&gt;&lt;b&gt;props:&lt;/b&gt; user, content&lt;/font&gt;&lt;/div&gt;&lt;font style=&quot;font-size: 13px&quot;&gt;&lt;b&gt;comps: &lt;/b&gt;Login, Register&lt;br&gt;&lt;/font&gt;" style="whiteSpace=wrap;html=1;rounded=1;align=center;" vertex="1" parent="DKAS6l4S00Xv15B4dpO1-1">
          <mxGeometry x="242" y="250" width="520" height="60" as="geometry" />
        </mxCell>
        <mxCell id="_OHYxKAUWBWKIHNH0SEk-48" value="&lt;b&gt;Redux:&lt;br&gt;&lt;/b&gt;&lt;div style=&quot;text-align: left&quot;&gt;&lt;b&gt;1.&lt;/b&gt; &lt;b&gt;vacations&lt;/b&gt;, type: array&lt;/div&gt;&lt;div style=&quot;text-align: left&quot;&gt;&lt;b&gt;2.&lt;/b&gt; &lt;b&gt;user&lt;/b&gt;, type: array (of one obj)&lt;/div&gt;&lt;div style=&quot;text-align: left&quot;&gt;&lt;b&gt;3.&lt;/b&gt;&amp;nbsp;&lt;span style=&quot;text-align: center ; background-color: rgb(255 , 255 , 255)&quot;&gt;&lt;b&gt;addVsEditButtons&lt;/b&gt;, type: number&lt;/span&gt;&lt;/div&gt;&lt;div style=&quot;text-align: left&quot;&gt;&lt;b&gt;4.&lt;/b&gt; &lt;b&gt;content&lt;/b&gt;, type: number&lt;/div&gt;&lt;div style=&quot;text-align: justify&quot;&gt;&lt;/div&gt;" style="rounded=1;whiteSpace=wrap;html=1;labelBackgroundColor=none;fontFamily=Helvetica;fontSize=14;fontColor=#000000;" vertex="1" parent="DKAS6l4S00Xv15B4dpO1-1">
          <mxGeometry x="20" y="10" width="250" height="120" as="geometry" />
        </mxCell>
        <mxCell id="GPODberzA4idkuwlgO1S-0" value="&lt;span style=&quot;font-size: 13px ; background-color: rgb(255 , 255 , 255)&quot;&gt;&lt;b&gt;CarouselComp&lt;/b&gt;&lt;br&gt;&lt;div style=&quot;text-align: left&quot;&gt;&lt;b&gt;props:&lt;/b&gt; random&lt;/div&gt;&lt;div style=&quot;text-align: left&quot;&gt;&lt;br&gt;&lt;/div&gt;&lt;/span&gt;" style="whiteSpace=wrap;html=1;rounded=1;" vertex="1" parent="DKAS6l4S00Xv15B4dpO1-1">
          <mxGeometry x="442" y="340" width="120" height="72.5" as="geometry" />
        </mxCell>
      </root>
    </mxGraphModel>
  </diagram>
</mxfile>
